<?xml version="1.0" standalone="no"?>
<!DOCTYPE svg PUBLIC "-//W3C//DTD SVG 20010904//EN"
 "http://www.w3.org/TR/2001/REC-SVG-20010904/DTD/svg10.dtd">
<svg version="1.0" xmlns="http://www.w3.org/2000/svg"
 width="260.000000pt" height="260.000000pt" viewBox="0 0 260.000000 260.000000"
 preserveAspectRatio="xMidYMid meet">
<metadata>
Created by potrace 1.11, written by Peter Selinger 2001-2013
</metadata>
<g transform="translate(0.000000,260.000000) scale(0.100000,-0.100000)"
fill="#000000" stroke="none">
<path d="M1228 2594 c-2 -1 -35 -5 -74 -8 -260 -22 -551 -159 -749 -353 -195
-191 -322 -417 -371 -663 -2 -14 -7 -31 -9 -38 -8 -22 -19 -165 -18 -237 0
-72 11 -214 18 -224 1 -3 6 -22 9 -42 11 -68 58 -204 105 -301 180 -366 538
-634 940 -703 200 -35 382 -23 611 39 52 15 166 64 236 103 414 231 669 665
667 1138 0 71 -11 214 -18 224 -1 3 -6 22 -9 42 -20 129 -113 340 -205 470
-216 301 -554 505 -902 544 -59 7 -227 14 -231 9z m287 -49 c499 -84 915 -481
1020 -978 89 -418 -34 -842 -334 -1150 -301 -310 -743 -443 -1170 -352 -401
85 -749 380 -904 766 -123 305 -119 660 9 962 189 441 611 738 1094 770 70 4
197 -4 285 -18z"/>
<path d="M1811 2288 c-72 -13 -129 -61 -157 -135 -30 -79 -18 -120 93 -316 74
-132 103 -174 110 -165 6 7 52 87 103 177 104 183 116 226 86 304 -38 100
-131 154 -235 135z m83 -144 c75 -49 10 -169 -73 -134 -40 16 -58 60 -41 101
20 47 71 62 114 33z"/>
<path d="M1047 1956 c-3 -8 -4 -22 -2 -32 2 -11 4 -24 4 -31 1 -6 17 -33 37
-59 33 -43 34 -46 13 -40 -84 27 -129 36 -170 36 -50 0 -109 -17 -109 -31 0
-11 60 -26 140 -35 36 -4 74 -10 85 -15 l20 -8 -20 0 c-35 -2 -223 -70 -304
-110 -309 -156 -406 -402 -254 -648 84 -135 183 -214 348 -276 151 -56 284
-79 488 -81 181 -3 287 9 398 45 264 83 432 268 443 487 15 282 -192 492 -573
582 l-54 13 50 19 c27 10 68 34 89 53 l39 35 -45 -5 c-55 -6 -123 -24 -214
-59 -37 -14 -71 -26 -74 -26 -3 0 8 15 25 33 37 39 59 80 68 131 l8 38 -44
-27 c-24 -15 -77 -59 -117 -99 l-73 -71 -20 25 c-34 42 -143 151 -160 161 -12
6 -19 4 -22 -5z m571 -266 c336 -86 520 -279 506 -530 -14 -233 -217 -419
-526 -480 -65 -13 -329 -17 -433 -7 -410 41 -666 227 -708 514 -12 82 47 218
125 289 68 62 225 153 256 148 6 -1 18 -2 25 -3 8 -1 6 -6 -5 -15 -46 -34 29
-34 153 0 157 42 146 44 100 -17 -23 -30 -41 -58 -42 -64 0 -5 -2 -20 -3 -32
-2 -13 1 -23 6 -23 4 0 42 32 83 71 41 39 75 68 76 63 2 -33 10 -92 13 -109 3
-11 5 -29 5 -40 2 -33 38 30 62 106 l20 67 67 -34 c37 -18 87 -36 112 -40 43
-5 44 -5 27 13 -23 26 -22 32 6 26 22 -4 22 -4 2 12 -11 9 -45 31 -74 48 l-55
31 50 12 c68 16 67 16 152 -6z"/>
<path d="M967 1332 c-20 -22 -22 -53 -5 -70 9 -9 4 -13 -20 -18 -18 -4 -35
-11 -38 -16 -4 -6 2 -7 15 -3 43 13 117 12 154 -2 21 -9 40 -13 43 -11 2 3 -9
11 -26 18 -27 11 -29 15 -24 49 4 28 2 42 -11 54 -22 22 -68 22 -88 -1z"/>
<path d="M1453 1342 c-6 -4 -16 -19 -22 -34 -8 -20 -6 -30 8 -45 18 -19 18
-20 -12 -31 -45 -17 -27 -25 19 -8 41 14 101 15 144 2 24 -7 24 -6 6 8 -11 9
-30 16 -43 16 -21 0 -22 2 -11 20 28 44 -44 102 -89 72z"/>
<path d="M1295 1226 c-31 -46 -53 -52 -85 -21 -16 15 -30 22 -34 17 -10 -16 3
-37 34 -56 26 -15 34 -15 57 -4 37 18 70 65 56 79 -8 8 -16 4 -28 -15z"/>
<path d="M708 1128 c-62 -21 -29 -78 45 -78 56 0 85 27 65 59 -7 12 -20 22
-28 22 -8 1 -24 3 -35 4 -11 1 -32 -2 -47 -7z"/>
<path d="M1751 1113 c-58 -29 -27 -79 41 -67 79 15 80 66 2 80 -6 1 -25 -5
-43 -13z"/>
<path d="M955 440 c-4 -6 -3 -16 3 -22 6 -6 12 -6 17 2 4 6 3 16 -3 22 -6 6
-12 6 -17 -2z"/>
<path d="M1839 438 c0 -7 -2 -22 -3 -33 -17 -119 -17 -135 -8 -135 14 0 20 21
28 108 5 51 3 72 -5 72 -6 0 -11 -6 -12 -12z"/>
<path d="M749 418 c0 -13 -2 -32 -4 -43 -12 -63 -14 -105 -6 -105 12 0 21 25
21 63 0 37 19 76 20 42 1 -11 9 -35 19 -53 19 -38 22 -36 69 37 l23 36 -7 -62
c-7 -71 10 -89 20 -20 3 23 8 61 11 85 8 60 -14 55 -56 -13 -18 -30 -36 -52
-40 -47 -3 4 -14 28 -24 55 -18 49 -44 63 -46 25z"/>
<path d="M1379 418 c-2 -27 -4 -49 -12 -105 l-6 -43 44 0 c24 0 47 5 50 10 4
6 -8 10 -30 10 l-36 0 6 53 c4 28 8 62 9 75 2 13 -2 22 -10 22 -8 0 -15 -10
-15 -22z"/>
<path d="M1743 385 c-36 -15 -59 -66 -42 -97 11 -21 50 -22 56 -1 3 7 -3 9
-16 6 -17 -4 -21 -1 -21 19 0 28 17 52 44 62 16 5 17 3 10 -21 -9 -32 -9 -72
0 -80 11 -11 16 3 22 59 6 64 -4 74 -53 53z"/>
<path d="M949 383 c-1 -10 -7 -51 -14 -85 -3 -20 0 -28 10 -28 8 0 15 8 16 18
0 9 2 36 5 60 4 27 2 42 -5 42 -6 0 -11 -3 -12 -7z"/>
<path d="M1015 365 c-46 -45 -24 -118 26 -86 12 7 19 7 19 1 0 -5 4 -10 10
-10 10 0 16 19 25 83 5 36 4 37 -26 37 -18 0 -39 -9 -54 -25z m55 -14 c0 -26
-34 -66 -48 -57 -16 10 -10 41 12 65 21 23 36 19 36 -8z"/>
<path d="M1125 378 c-2 -7 -5 -34 -8 -60 -3 -36 -1 -48 9 -48 8 0 14 11 15 28
0 15 4 36 8 47 9 22 4 45 -10 45 -5 0 -11 -6 -14 -12z"/>
<path d="M1160 380 c0 -5 7 -10 16 -10 14 0 16 -8 10 -50 -7 -53 9 -72 20 -22
10 47 23 72 39 72 12 0 14 -9 9 -51 -5 -40 -3 -50 7 -47 7 2 14 25 17 56 4 57
-13 76 -49 53 -12 -7 -19 -7 -19 -1 0 5 -11 10 -25 10 -14 0 -25 -4 -25 -10z"/>
<path d="M1486 375 c-37 -38 -25 -105 19 -105 47 0 78 54 59 104 -8 20 -58 21
-78 1z m57 -52 c-6 -17 -18 -29 -31 -31 -18 -3 -22 2 -22 27 0 16 7 37 16 46
15 14 19 15 32 2 11 -11 12 -22 5 -44z"/>
<path d="M1607 372 c-20 -22 -22 -73 -5 -90 17 -17 53 -15 68 3 11 13 8 14
-19 9 -23 -5 -32 -2 -37 10 -11 29 12 66 41 66 14 0 25 5 25 10 0 17 -56 11
-73 -8z"/>
</g>
</svg>
